<svg xmlns="http://www.w3.org/2000/svg" width="1280" height="620" viewBox="0 0 1280 620" role="img" aria-labelledby="title desc">
<title id="title">sparkDash Desktop — DGX Spark monitoring over SSH</title><desc id="desc">Illustrative dashboard with four host cards, network groups and telemetry curves. All values are demonstration data.</desc>
<defs><linearGradient id="bg" x2="1" y2="1"><stop stop-color="#0c1425"/><stop offset="1" stop-color="#172e35"/></linearGradient><linearGradient id="line"><stop stop-color="#68e6bb"/><stop offset="1" stop-color="#8cb8ff"/></linearGradient><pattern id="grid" width="40" height="40" patternUnits="userSpaceOnUse"><path d="M40 0H0V40" fill="none" stroke="#b3e5ff" stroke-opacity=".04"/></pattern></defs>
<rect width="1280" height="620" rx="24" fill="url(#bg)"/><rect width="1280" height="620" rx="24" fill="url(#grid)"/>
<g font-family="-apple-system,BlinkMacSystemFont,Segoe UI,Arial,sans-serif">
<rect x="56" y="48" width="228" height="30" rx="15" fill="#253e42"/><text x="72" y="68" fill="#8cf2c8" font-size="12" font-weight="700" letter-spacing="2">MACOS · APPLE SILICON</text>
<text x="56" y="146" fill="#f1f6fc" font-size="54" font-weight="750" letter-spacing="-2">sparkDash Desktop</text>
<text x="58" y="190" fill="#b4c9dc" font-size="25">DGX Spark monitoring over SSH</text>
<text x="58" y="231" fill="#7d9eae" font-size="16">SSH telemetry · LLM insights · Cluster overview · 中文 / EN</text>
<g transform="translate(56 273)">
<rect width="1168" height="291" rx="16" fill="#0e1928" stroke="#345061"/>
<path d="M0 42H1168" stroke="#2a3b4b"/><circle cx="23" cy="21" r="5" fill="#ff8079"/><circle cx="41" cy="21" r="5" fill="#e8c26f"/><circle cx="59" cy="21" r="5" fill="#76d6a1"/>
<text x="88" y="26" fill="#dce8f0" font-size="13" font-weight="600">Fleet overview</text><text x="959" y="26" fill="#86a1b6" font-size="11">ILLUSTRATIVE PREVIEW</text>
<text x="24" y="76" fill="#8cf2c8" font-size="11" font-weight="700" letter-spacing="2">CLUSTER A / 200G LINK</text><text x="604" y="76" fill="#93bafa" font-size="11" font-weight="700" letter-spacing="2">CLUSTER B / 200G LINK</text>
<g transform="translate(24 94)"><rect width="266" height="170" rx="10" fill="#172536" stroke="#2d4358"/><circle cx="20" cy="24" r="4" fill="#81edbc"/><text x="33" y="29" fill="#eef4fc" font-size="15" font-weight="600">Spark 01</text><text x="192" y="28" fill="#91abc2" font-size="10">HEAD</text><text x="16" y="61" fill="#8ca6bb" font-size="10" letter-spacing="1">GPU UTILIZATION</text><text x="16" y="94" fill="#e3f7f1" font-size="28" font-weight="650">72<tspan font-size="15" fill="#87a4b9"> %</tspan></text><path d="M16 143L34 137L49 141L65 118L82 126L99 106L116 119L132 102L149 111L166 93L182 105L200 82L220 88L249 73" transform="translate(0 8) scale(1 .95)" fill="none" stroke="url(#line)" stroke-width="2.5"/><text x="184" y="61" fill="#8ca6bb" font-size="10">LIVE / SSH</text></g><g transform="translate(314 94)"><rect width="266" height="170" rx="10" fill="#172536" stroke="#2d4358"/><circle cx="20" cy="24" r="4" fill="#81edbc"/><text x="33" y="29" fill="#eef4fc" font-size="15" font-weight="600">Spark 02</text><text x="192" y="28" fill="#91abc2" font-size="10">WORKER</text><text x="16" y="61" fill="#8ca6bb" font-size="10" letter-spacing="1">GPU UTILIZATION</text><text x="16" y="94" fill="#e3f7f1" font-size="28" font-weight="650">68<tspan font-size="15" fill="#87a4b9"> %</tspan></text><path d="M16 143L34 137L49 141L65 118L82 126L99 106L116 119L132 102L149 111L166 93L182 105L200 82L220 88L249 73" transform="translate(0 8) scale(1 .95)" fill="none" stroke="url(#line)" stroke-width="2.5"/><text x="184" y="61" fill="#8ca6bb" font-size="10">LIVE / SSH</text></g><g transform="translate(604 94)"><rect width="266" height="170" rx="10" fill="#172536" stroke="#2d4358"/><circle cx="20" cy="24" r="4" fill="#81edbc"/><text x="33" y="29" fill="#eef4fc" font-size="15" font-weight="600">Spark 03</text><text x="192" y="28" fill="#91abc2" font-size="10">HEAD</text><text x="16" y="61" fill="#8ca6bb" font-size="10" letter-spacing="1">GPU UTILIZATION</text><text x="16" y="94" fill="#e3f7f1" font-size="28" font-weight="650">84<tspan font-size="15" fill="#87a4b9"> %</tspan></text><path d="M16 143L34 137L49 141L65 118L82 126L99 106L116 119L132 102L149 111L166 93L182 105L200 82L220 88L249 73" transform="translate(0 8) scale(1 .95)" fill="none" stroke="url(#line)" stroke-width="2.5"/><text x="184" y="61" fill="#8ca6bb" font-size="10">LIVE / SSH</text></g><g transform="translate(894 94)"><rect width="266" height="170" rx="10" fill="#172536" stroke="#2d4358"/><circle cx="20" cy="24" r="4" fill="#81edbc"/><text x="33" y="29" fill="#eef4fc" font-size="15" font-weight="600">Spark 04</text><text x="192" y="28" fill="#91abc2" font-size="10">WORKER</text><text x="16" y="61" fill="#8ca6bb" font-size="10" letter-spacing="1">GPU UTILIZATION</text><text x="16" y="94" fill="#e3f7f1" font-size="28" font-weight="650">79<tspan font-size="15" fill="#87a4b9"> %</tspan></text><path d="M16 143L34 137L49 141L65 118L82 126L99 106L116 119L132 102L149 111L166 93L182 105L200 82L220 88L249 73" transform="translate(0 8) scale(1 .95)" fill="none" stroke="url(#line)" stroke-width="2.5"/><text x="184" y="61" fill="#8ca6bb" font-size="10">LIVE / SSH</text></g></g><text x="58" y="596" fill="#7194a7" font-size="12">Built on Mia’a AI Lab / sparkDash · Independently maintained desktop derivative · Demo data</text></g></svg>